# xmcd
#
# Track frame offsets:
#	150
#	11150
#	27530
#	34985
#	45395
#	55523
#	67105
#	79223
#	101805
#	109998
#	121433
#	134730
#	146165
#	158683
#	167638
#	177538
#	186945
#	197678
#	209165
#	223563
#	237685
#	248455
#	259743
#	271808
#	283955
#
# Disc length: 3930 seconds
# Revision: 0
# Processed by: cddbd v1.5.2PL0 Copyright (c) Steve Scherf et al.
# Submitted via: dBpowerAMP V12.0
#
DISCID=8d0f5819
DTITLE=Duane Eddy - Especially for You - Girls! Girls! Girls!
DYEAR=1995
DGENRE=Country
TTITLE0=Peter Gunn
TTITLE1=Only Child
TTITLE2=Lover
TTITLE3=Fuzz
TTITLE4=Yep!
TTITLE5=Along the Navajo Trail
TTITLE6=Just Because
TTITLE7=Quiniela
TTITLE8=Trouble in Mind
TTITLE9=Tuxedo Junction
TTITLE10=Hard Times
TTITLE11=Along Came Linda
TTITLE12=Tuxedo Junction (Mono)
TTITLE13=Brenda (Medley of Brenda Lee Hits)
TTITLE14=Sioux City Sioux
TTITLE15=Some Kinda Earthquake [alt. Overdub]
TTITLE16=First Love, First Tears [undubbed]
TTITLE17=Mary Ann
TTITLE18=Annette
TTITLE19=Tuesday
TTITLE20=Sweet Cindy
TTITLE21=Patricia
TTITLE22=Mona Lisa
TTITLE23=Connie
TTITLE24=Carol
EXTD=
EXTT0=
EXTT1=
EXTT2=
EXTT3=
EXTT4=
EXTT5=
EXTT6=
EXTT7=
EXTT8=
EXTT9=
EXTT10=
EXTT11=
EXTT12=
EXTT13=
EXTT14=
EXTT15=
EXTT16=
EXTT17=
EXTT18=
EXTT19=
EXTT20=
EXTT21=
EXTT22=
EXTT23=
EXTT24=
PLAYORDER=
